<svg width="512" height="512" viewBox="0 0 512 512" fill="none" xmlns="http://www.w3.org/2000/svg">
<g clip-path="url(#clip0_106_984)">
<path d="M128 512C198.692 512 256 454.692 256 384C256 313.307 198.692 256 128 256C57.3075 256 0 313.307 0 384C0 454.692 57.3075 512 128 512Z" fill="#4EFDA2"/>
<path d="M384 512C454.692 512 512 454.692 512 384C512 313.308 454.692 256 384 256C313.308 256 256 313.308 256 384C256 454.692 313.308 512 384 512Z" fill="black"/>
<path d="M128 256C198.692 256 256 198.692 256 128C256 57.3075 198.692 0 128 0C57.3075 0 0 57.3075 0 128C0 198.692 57.3075 256 128 256Z" fill="black"/>
<path d="M384 256C454.692 256 512 198.692 512 128C512 57.3076 454.692 6.10352e-05 384 6.10352e-05C313.308 6.10352e-05 256 57.3076 256 128C256 198.692 313.308 256 384 256Z" fill="#0018FF"/>
</g>
<defs>
<clipPath id="clip0_106_984">
<rect width="512" height="512" fill="white"/>
</clipPath>
</defs>
</svg>
